Good Luck Charlie S02E20 Amazing Gracie.m4v




Not the best Quality, but it is watchable!

Enjoy!

Please seed after the download! Thanks!





Media-Info:
Format                           : MPEG-4
Codec ID                         : M4V 
File size                        : 254 MiB
Duration                         : 21mn 46s
Overall bit rate                 : 1 628 Kbps
Encoded date                     : UTC 2011-08-08 21:44:42
Tagged date                      : UTC 2011-08-08 21:44:53

Video
ID                               : 1
Format                           : AVC
Format/Info                      : Advanced Video Codec
Format profile                   : Baseline@L3.0
Format settings, CABAC           : No
Format settings, ReFrames        : 1 frame
Codec ID                         : avc1
Codec ID/Info                    : Advanced Video Coding
Duration                         : 21mn 46s
Bit rate mode                    : Variable
Bit rate                         : 1 503 Kbps
Maximum bit rate                 : 4 006 Kbps
Width                            : 640 pixels
Height                           : 360 pixels
Display aspect ratio             : 16:9
Frame rate mode                  : Constant
Frame rate                       : 29.970 fps
Color space                      : YUV
Chroma subsampling               : 4:2:0
Bit depth                        : 8 bits
Scan type                        : Progressive
Bits/(Pixel*Frame)               : 0.218
Stream size                      : 234 MiB (92%)
Language                         : English
Encoded date                     : UTC 2011-08-08 21:24:05
Tagged date                      : UTC 2011-08-08 21:44:53
Color primaries                  : BT.601-6 525, BT.1358 525, BT.1700 NTSC, SMPTE 170M
Transfer characteristics         : BT.709-5, BT.1361
Matrix coefficients              : BT.601-6 525, BT.1358 525, BT.1700 NTSC, SMPTE 170M

Audio
ID                               : 2
Format                           : AAC
Format/Info                      : Advanced Audio Codec
Format profile                   : LC
Codec ID                         : 40
Duration                         : 21mn 46s
Bit rate mode                    : Constant
Bit rate                         : 121 Kbps
Nominal bit rate                 : 128 Kbps
Channel(s)                       : 2 channels
Channel positions                : Front: L R
Sampling rate                    : 44.1 KHz
Compression mode                 : Lossy
Stream size                      : 18.9 MiB (7%)
Language                         : English
Encoded date                     : UTC 2011-08-08 21:24:05
Tagged date                      : UTC 2011-08-08 21:44:53
Material_Duration                : 1306285
Material_StreamSize              : 19770462

